<svg xmlns="http://www.w3.org/2000/svg" viewBox="0 0 100 100">
  <!-- deep navy circle -->
  <circle cx="50" cy="50" r="50" fill="#0d182a"/>
  <!-- Cormorant Garamond Bold 'N', glyph outline -->
  <path d="M26.37713398861873 27.716761510605274Q23.29798241076048 24.25271598551474 20.98861872736679 22.95369891360579Q18.6792550439731 21.654681841696842 16.27366787377134 21.654681841696842Q16.081220900155202 21.654681841696842 16.081220900155202 21.07734092084842Q16.081220900155202 20.5 16.27366787377134 20.5L23.97154681841697 20.692446973616143L31.28453181583032 20.59622348680807Q32.92033109156751 20.5 34.55613036730471 20.5Q35.325918261769274 20.5 35.71081220900156 20.884893947232282Q36.09570615623384 21.269787894464564 37.05794102431454 22.520693222969477Q38.693740300051736 24.733833419555097 39.36730470770823 25.50362131401966L72.66063114330056 63.89679255043973V32.816606311433006Q72.66063114330056 27.620538023797202 70.54371443352302 24.637609932747022Q68.42679772374548 21.654681841696842 64.67408173823073 21.654681841696842Q64.48163476461458 21.654681841696842 64.48163476461458 21.07734092084842Q64.48163476461458 20.5 64.67408173823073 20.5L68.81169167097775 20.59622348680807Q71.890843248836 20.788670460424207 74.00775995861356 20.788670460424207Q75.93222969477496 20.788670460424207 79.39627521986549 20.59622348680807L83.72633212622866 20.5Q83.9187790998448 20.5 83.9187790998448 21.07734092084842Q83.9187790998448 21.654681841696842 83.72633212622866 21.654681841696842Q79.87739265390584 21.654681841696842 77.66425245732023 24.685721676151058Q75.4511122607346 27.716761510605274 75.4511122607346 32.816606311433006V82.08303155716503Q75.4511122607346 82.37170201758924 75.0181065700983 82.46792550439731Q74.58510087946198 82.56414899120539 74.39265390584583 82.37170201758924L29.263838592860843 30.98836006207967V68.41929643041904Q29.263838592860843 73.51914123124676 31.380755302638388 76.50206932229695Q33.49767201241593 79.48499741334713 37.25038799793068 79.48499741334713Q37.44283497154682 79.48499741334713 37.44283497154682 80.06233833419554Q37.44283497154682 80.63967925504397 37.25038799793068 80.63967925504397Q34.55613036730471 80.63967925504397 33.112778065183655 80.5434557682359L27.916709777547858 80.44723228142783L17.235902741852044 80.63967925504397Q16.947232281427834 80.63967925504397 16.947232281427834 80.06233833419554Q16.947232281427834 79.48499741334713 17.235902741852044 79.48499741334713Q21.46973616140714 79.48499741334713 23.923435075012936 76.50206932229695Q26.37713398861873 73.51914123124676 26.37713398861873 68.41929643041904Z" fill="#da9b26"/>
</svg>